<svg viewBox="0 0 1060 664" xmlns="http://www.w3.org/2000/svg" font-family="Inter, 'Helvetica Neue', Arial, sans-serif">
<rect x="0" y="0" width="1060" height="664" fill="#ffffff"/>
<text x="28" y="42" font-size="25" font-weight="700" fill="#021936">UTM generation — three ways to trigger it</text>
<text x="28" y="66" font-size="14" fill="#5B6472">Same requirement in all three: single or multiple codes, repeatable, written to the task brief and the Excel register.</text>
<rect x="28" y="84" width="1004" height="46" rx="9" fill="#E9F0FF" stroke="#0043C4" stroke-width="1.1"/>
<text x="46" y="107" font-size="13.5" font-weight="700" fill="#0043C4">One Opal agent does the work</text>
<text x="46" y="123" font-size="12.5" fill="#021936">pre-fill · build the Swiss Re pattern · write-back · log. Same engine behind all three — only the front door differs, so no rework.</text>
<rect x="28" y="150" width="324" height="62" rx="9" fill="#ffffff" stroke="#0043C4" stroke-width="1.6"/>
<text x="44" y="177" font-size="15" font-weight="700" fill="#0043C4">Opal Chat — conversational</text>
<rect x="42" y="188" width="146.79999999999998" height="16" rx="8" fill="#E9F0FF"/>
<text x="115.39999999999999" y="199.5" font-size="9.5" font-weight="700" fill="#0043C4" text-anchor="middle">Lowest cost · at launch</text>
<rect x="368" y="150" width="324" height="62" rx="9" fill="#ffffff" stroke="#1B7A43" stroke-width="1.6"/>
<text x="384" y="177" font-size="15" font-weight="700" fill="#1B7A43">Opal Chat — guided form</text>
<rect x="382" y="188" width="208.39999999999998" height="16" rx="8" fill="#E7F5EC"/>
<text x="486.2" y="199.5" font-size="9.5" font-weight="700" fill="#1B7A43" text-anchor="middle">Low cost · at launch · recommended</text>
<rect x="708" y="150" width="324" height="62" rx="9" fill="#ffffff" stroke="#B4530E" stroke-width="1.6"/>
<text x="724" y="177" font-size="15" font-weight="700" fill="#B4530E">Button inside the task</text>
<rect x="722" y="188" width="163.6" height="16" rx="8" fill="#FBEDE2"/>
<text x="803.8" y="199.5" font-size="9.5" font-weight="700" fill="#B4530E" text-anchor="middle">Custom build · fast-follow</text>
<rect x="28" y="228" width="324" height="46" rx="7" fill="#E9F0FF" stroke="#C9D2DE" stroke-width="0.8"/>
<circle cx="52" cy="251.0" r="11.5" fill="#0043C4"/>
<text x="52" y="255.0" font-size="12" font-weight="700" fill="#fff" text-anchor="middle">1</text>
<text x="72" y="248.0" font-size="11.5" fill="#021936">Open Opal Chat in CMP (task</text>
<text x="72" y="262.0" font-size="11.5" fill="#021936">open)</text>
<rect x="28" y="282" width="324" height="46" rx="7" fill="#E9F0FF" stroke="#C9D2DE" stroke-width="0.8"/>
<circle cx="52" cy="305.0" r="11.5" fill="#0043C4"/>
<text x="52" y="309.0" font-size="12" font-weight="700" fill="#fff" text-anchor="middle">2</text>
<text x="72" y="309.0" font-size="11.5" fill="#021936">Ask the agent to generate</text>
<rect x="28" y="336" width="324" height="46" rx="7" fill="#E9F0FF" stroke="#C9D2DE" stroke-width="0.8"/>
<circle cx="52" cy="359.0" r="11.5" fill="#0043C4"/>
<text x="52" y="363.0" font-size="12" font-weight="700" fill="#fff" text-anchor="middle">3</text>
<text x="72" y="356.0" font-size="11.5" fill="#021936">It detects your task, pre-</text>
<text x="72" y="370.0" font-size="11.5" fill="#021936">fills fields</text>
<rect x="28" y="390" width="324" height="46" rx="7" fill="#E9F0FF" stroke="#C9D2DE" stroke-width="0.8"/>
<circle cx="52" cy="413.0" r="11.5" fill="#0043C4"/>
<text x="52" y="417.0" font-size="12" font-weight="700" fill="#fff" text-anchor="middle">4</text>
<text x="72" y="417.0" font-size="11.5" fill="#021936">Confirm the fields it asks for</text>
<rect x="28" y="444" width="324" height="46" rx="7" fill="#E9F0FF" stroke="#C9D2DE" stroke-width="0.8"/>
<circle cx="52" cy="467.0" r="11.5" fill="#0043C4"/>
<text x="52" y="471.0" font-size="12" font-weight="700" fill="#fff" text-anchor="middle">5</text>
<text x="72" y="464.0" font-size="11.5" fill="#021936">1 or many codes → brief +</text>
<text x="72" y="478.0" font-size="11.5" fill="#021936">register</text>
<rect x="368" y="228" width="324" height="46" rx="7" fill="#E7F5EC" stroke="#C9D2DE" stroke-width="0.8"/>
<circle cx="392" cy="251.0" r="11.5" fill="#1B7A43"/>
<text x="392" y="255.0" font-size="12" font-weight="700" fill="#fff" text-anchor="middle">1</text>
<text x="412" y="248.0" font-size="11.5" fill="#021936">Open Opal Chat in CMP (task</text>
<text x="412" y="262.0" font-size="11.5" fill="#021936">open)</text>
<rect x="368" y="282" width="324" height="46" rx="7" fill="#E7F5EC" stroke="#C9D2DE" stroke-width="0.8"/>
<circle cx="392" cy="305.0" r="11.5" fill="#1B7A43"/>
<text x="392" y="309.0" font-size="12" font-weight="700" fill="#fff" text-anchor="middle">2</text>
<text x="412" y="302.0" font-size="11.5" fill="#021936">Agent shows a form with</text>
<text x="412" y="316.0" font-size="11.5" fill="#021936">dropdowns</text>
<rect x="368" y="336" width="324" height="46" rx="7" fill="#E7F5EC" stroke="#C9D2DE" stroke-width="0.8"/>
<circle cx="392" cy="359.0" r="11.5" fill="#1B7A43"/>
<text x="392" y="363.0" font-size="12" font-weight="700" fill="#fff" text-anchor="middle">3</text>
<text x="412" y="356.0" font-size="11.5" fill="#021936">Detects your task, pre-fills</text>
<text x="412" y="370.0" font-size="11.5" fill="#021936">fields</text>
<rect x="368" y="390" width="324" height="46" rx="7" fill="#E7F5EC" stroke="#C9D2DE" stroke-width="0.8"/>
<circle cx="392" cy="413.0" r="11.5" fill="#1B7A43"/>
<text x="392" y="417.0" font-size="12" font-weight="700" fill="#fff" text-anchor="middle">4</text>
<text x="412" y="417.0" font-size="11.5" fill="#021936">Pick options · 1 or many codes</text>
<rect x="368" y="444" width="324" height="46" rx="7" fill="#E7F5EC" stroke="#C9D2DE" stroke-width="0.8"/>
<circle cx="392" cy="467.0" r="11.5" fill="#1B7A43"/>
<text x="392" y="471.0" font-size="12" font-weight="700" fill="#fff" text-anchor="middle">5</text>
<text x="412" y="471.0" font-size="11.5" fill="#021936">Codes → brief + register</text>
<rect x="708" y="228" width="324" height="46" rx="7" fill="#FBEDE2" stroke="#C9D2DE" stroke-width="0.8"/>
<circle cx="732" cy="251.0" r="11.5" fill="#B4530E"/>
<text x="732" y="255.0" font-size="12" font-weight="700" fill="#fff" text-anchor="middle">1</text>
<text x="752" y="248.0" font-size="11.5" fill="#021936">Click 'Generate UTM' in the</text>
<text x="752" y="262.0" font-size="11.5" fill="#021936">task</text>
<rect x="708" y="282" width="324" height="46" rx="7" fill="#FBEDE2" stroke="#C9D2DE" stroke-width="0.8"/>
<circle cx="732" cy="305.0" r="11.5" fill="#B4530E"/>
<text x="732" y="309.0" font-size="12" font-weight="700" fill="#fff" text-anchor="middle">2</text>
<text x="752" y="309.0" font-size="11.5" fill="#021936">Form opens, pre-filled</text>
<rect x="708" y="336" width="324" height="46" rx="7" fill="#FBEDE2" stroke="#C9D2DE" stroke-width="0.8"/>
<circle cx="732" cy="359.0" r="11.5" fill="#B4530E"/>
<text x="732" y="363.0" font-size="12" font-weight="700" fill="#fff" text-anchor="middle">3</text>
<text x="752" y="363.0" font-size="11.5" fill="#021936">Fill fields · 1 or many codes</text>
<rect x="708" y="390" width="324" height="46" rx="7" fill="#FBEDE2" stroke="#C9D2DE" stroke-width="0.8"/>
<circle cx="732" cy="413.0" r="11.5" fill="#B4530E"/>
<text x="732" y="417.0" font-size="12" font-weight="700" fill="#fff" text-anchor="middle">4</text>
<text x="752" y="417.0" font-size="11.5" fill="#021936">Create → agent generates</text>
<rect x="708" y="444" width="324" height="46" rx="7" fill="#FBEDE2" stroke="#C9D2DE" stroke-width="0.8"/>
<circle cx="732" cy="467.0" r="11.5" fill="#B4530E"/>
<text x="732" y="471.0" font-size="12" font-weight="700" fill="#fff" text-anchor="middle">5</text>
<text x="752" y="471.0" font-size="11.5" fill="#021936">Codes → brief + register</text>
<text x="368" y="500" font-size="10" font-style="italic" fill="#5B6472">* needs Optimizely's built-in interactive tools switched on (beta)</text>
<rect x="28" y="512" width="1004" height="38" rx="9" fill="#EEF1F5"/>
<text x="530.0" y="536" font-size="13" font-weight="600" fill="#021936" text-anchor="middle">Every code lands in the task brief (all codes stacked) and the filterable Excel register in SharePoint — repeatable on any later day.</text>
</svg>